<svg enable-background="new 0 0 512 512" height="512" viewBox="0 0 512 512" width="512" xmlns="http://www.w3.org/2000/svg"><g><path fill="#051C34" d="m421 165v-53.789l25.605-25.605c5.859-5.859 5.859-15.352 0-21.211s-15.352-5.859-21.211 0l-30 30c-2.812 2.812-4.394 6.621-4.394 10.605v49.189l-38.104 12.702c-3.854-20.436-8.78-39.531-15.093-56.162-16.335 20.294-40.038 34.017-66.802 37.875v330.057c27.524-7.76 50.964-36.768 67.048-79.51l52.951 17.66v50.189c0 3.984 1.582 7.793 4.395 10.605l30 30c5.859 5.859 15.352 5.859 21.211 0s5.859-15.352 0-21.211l-25.606-25.605v-54.789c0-6.46-4.131-12.188-10.254-14.224l-63.576-21.196c7.76-29.203 12.497-62.921 13.528-99.58h34.492l26.587 79.746c.732 2.212 1.978 4.219 3.618 5.859l30 30c5.859 5.859 15.352 5.859 21.211 0s5.859-15.352 0-21.211l-27.495-27.495-28.887-86.646c-2.036-6.122-7.764-10.253-14.224-10.253h-45.579c-.425-14.872-1.456-30.182-3.062-43.986l53.386-17.791c6.124-2.035 10.255-7.763 10.255-14.223z"/><path fill="#051C34" d="m106 241c-6.46 0-12.188 4.131-14.224 10.254l-28.886 86.645-27.495 27.495c-5.859 5.859-5.859 15.352 0 21.211s15.352 5.859 21.211 0l30-30c1.641-1.641 2.886-3.647 3.618-5.859l26.587-79.746h34.492c1.031 36.66 5.768 70.377 13.528 99.58l-63.576 21.196c-6.124 2.037-10.255 7.764-10.255 14.224v54.789l-25.605 25.605c-5.859 5.859-5.859 15.352 0 21.211s15.352 5.859 21.211 0l30-30c2.812-2.812 4.394-6.621 4.394-10.605v-50.189l52.952-17.659c16.084 42.742 39.523 71.75 67.048 79.51v-330.054c-26.666-3.878-50.433-17.596-66.799-37.89-6.313 16.635-11.239 35.733-15.097 56.173l-38.104-12.702v-49.189c0-3.984-1.582-7.793-4.395-10.605l-30-30c-5.859-5.859-15.352-5.859-21.211 0s-5.859 15.352 0 21.211l25.606 25.605v53.789c0 6.46 4.131 12.188 10.254 14.224l53.386 17.792c-1.606 13.804-2.637 29.112-3.062 43.984z"/><path d="m406 0h-120c-3.984 0-7.793 1.582-10.605 4.395l-19.395 19.394-19.395-19.394c-2.812-2.813-6.621-4.395-10.605-4.395h-120c-8.291 0-15 6.709-15 15s6.709 15 15 15h113.789l8.282 8.282c-14.489 8.031-27.74 21.473-38.84 40.545 12.489 24.54 37.917 41.173 66.769 41.173 28.976 0 54.37-16.56 66.824-41.089-11.109-19.118-24.38-32.587-38.895-40.629l8.282-8.282h113.789c8.291 0 15-6.709 15-15s-6.709-15-15-15z"/></g></svg>