<svg enable-background="new 0 0 512 512" height="512" viewBox="0 0 512 512" width="512" xmlns="http://www.w3.org/2000/svg"><g><g><path d="m174 290c-10.647 0-21.066-2.686-30.133-7.767-5.47-3.064-12.266-3.064-17.734 0-9.067 5.081-19.486 7.767-30.133 7.767-32.165 0-58.333-24.225-58.333-54 0-12.479 4.706-24.645 13.25-34.257 5.41-6.086 9.656-13.698 12.622-22.626 10.062-30.297 37.445-49.117 71.461-49.117s61.399 18.82 71.462 49.117c2.965 8.928 7.212 16.54 12.622 22.626 8.544 9.612 13.25 21.778 13.25 34.257-.001 29.775-26.169 54-58.334 54z"/><path d="m135 100c-22.056 0-40-18.505-40-41.25 0-9.351 4.806-20.722 15.125-35.787 6.626-9.675 13.196-17.385 13.472-17.708 2.85-3.335 7.016-5.255 11.403-5.255s8.553 1.92 11.403 5.255c.276.323 6.846 8.033 13.472 17.708 10.319 15.065 15.125 26.436 15.125 35.787 0 22.745-17.944 41.25-40 41.25z"/><path d="m40 150c-22.056 0-40-18.505-40-41.25 0-9.351 4.806-20.722 15.125-35.787 6.626-9.675 13.196-17.385 13.472-17.708 2.85-3.335 7.016-5.255 11.403-5.255s8.553 1.92 11.403 5.255c.276.323 6.846 8.033 13.472 17.708 10.319 15.065 15.125 26.436 15.125 35.787 0 22.745-17.944 41.25-40 41.25z"/><path d="m230 150c-22.056 0-40-18.505-40-41.25 0-9.351 4.806-20.722 15.125-35.787 6.626-9.675 13.196-17.385 13.472-17.708 2.85-3.335 7.016-5.255 11.403-5.255s8.553 1.92 11.403 5.255c.276.323 6.846 8.033 13.472 17.708 10.319 15.065 15.125 26.436 15.125 35.787 0 22.745-17.944 41.25-40 41.25z"/></g><g><path d="m416 512c-10.647 0-21.066-2.686-30.133-7.767-5.47-3.064-12.266-3.064-17.734 0-9.067 5.081-19.486 7.767-30.133 7.767-32.165 0-58.333-24.225-58.333-54 0-12.479 4.706-24.645 13.25-34.257 5.41-6.086 9.656-13.698 12.622-22.626 10.062-30.297 37.445-49.117 71.461-49.117s61.399 18.82 71.462 49.117c2.965 8.928 7.212 16.54 12.622 22.626 8.544 9.612 13.25 21.778 13.25 34.257-.001 29.775-26.169 54-58.334 54z"/><path d="m377 322c-22.056 0-40-18.505-40-41.25 0-9.351 4.806-20.722 15.125-35.787 6.626-9.675 13.196-17.385 13.472-17.708 2.85-3.335 7.016-5.255 11.403-5.255s8.553 1.92 11.403 5.255c.276.323 6.846 8.033 13.472 17.708 10.319 15.065 15.125 26.436 15.125 35.787 0 22.745-17.944 41.25-40 41.25z"/><path d="m282 372c-22.056 0-40-18.505-40-41.25 0-9.351 4.806-20.722 15.125-35.787 6.626-9.675 13.196-17.385 13.472-17.708 2.85-3.335 7.016-5.255 11.403-5.255s8.553 1.92 11.403 5.255c.276.323 6.846 8.033 13.472 17.708 10.319 15.065 15.125 26.436 15.125 35.787 0 22.745-17.944 41.25-40 41.25z"/><path d="m472 372c-22.056 0-40-18.505-40-41.25 0-9.351 4.806-20.722 15.125-35.787 6.626-9.675 13.196-17.385 13.472-17.708 2.85-3.335 7.016-5.255 11.403-5.255s8.553 1.92 11.403 5.255c.276.323 6.846 8.033 13.472 17.708 10.319 15.065 15.125 26.436 15.125 35.787 0 22.745-17.944 41.25-40 41.25z"/></g></g></svg>