<svg height="512" viewBox="0 0 64 64" width="512" xmlns="http://www.w3.org/2000/svg"><g id="Layer_24" data-name="Layer 24"><path fill="#051C34" d="m19 53a3 3 0 0 0 3 3h22a3 3 0 0 0 3-3v-27a9.01 9.01 0 0 0 -9-9h-10a9.01 9.01 0 0 0 -9 9v1h10v2h-10v2h8v2h-8v2h11v2h-11v2h8v2h-8v2h10v2h-10v2h8v2h-8v2h11v2z"/><path fill="#051C34" d="m38 15c.338 0 .67.021 1 .051v-1.051a1 1 0 0 0 -1-1h-10a1 1 0 0 0 -1 1v1.051c.33-.03.662-.051 1-.051z"/><path fill="#051C34" d="m31 7h4v4h-4z"/><path fill="#051C34" d="m28 5h10a1 1 0 0 0 0-2h-10a1 1 0 0 0 0 2z"/><path fill="#051C34" d="m48.586 18-1.586-1.586-1.532 1.532a11.09 11.09 0 0 1 1.485 1.687z"/><path fill="#051C34" d="m7 29h4v16h-4z"/><path fill="#051C34" d="m10 22.657a2.98 2.98 0 0 1 .879-2.122l5.828-5.828-1.414-1.414-5.828 5.828a4.969 4.969 0 0 0 -1.465 3.536v4.343h2z"/><path fill="#051C34" d="m54.465 11a4.506 4.506 0 0 0 -3.207 1.328l-2.758 2.758 1.414 1.414 2.758-2.758a2.536 2.536 0 0 1 4.328 1.793v40.465a5.006 5.006 0 0 1 -5 5h-37a5.006 5.006 0 0 1 -5-5v-9h-2v9a7.009 7.009 0 0 0 7 7h37a7.009 7.009 0 0 0 7-7v-40.465a4.54 4.54 0 0 0 -4.535-4.535z"/></g></svg>