<svg enable-background="new 0 0 512.021 512.021" height="512" viewBox="0 0 512.021 512.021" width="512" xmlns="http://www.w3.org/2000/svg"><g><path fill="#051C34" d="m139.444 169.365c-.675.352-1.337.742-1.97 1.207-42.214 31.046-70.81 37.648-87.487 37.648-.163 0-.326 0-.486-.002-16.472-.127-23.565-6.178-23.869-6.451-2.662-2.799-6.358-4.569-10.62-4.569-7.846 0-15.363 6.899-15 15 .18 4.008 1.79 7.707 4.38 10.431 1.396 1.421 14.308 14.001 40.549 15.454 1.705.094 3.424.142 5.16.142 24.22 0 51.459-9.196 81.274-27.396-51.204 46.425-125.806 164.825-129.066 170.018-4.405 7.016-2.289 16.274 4.728 20.68 2.479 1.556 5.236 2.298 7.962 2.298 4.989 0 9.869-2.488 12.718-7.026.672-1.069 56.844-90.239 102.999-142.367-.052-4.458-.073-8.915-.073-13.358 0-24.949 3.028-49.206 8.801-71.709z"/><path fill="#051C34" d="m192.863 73.893c-.198.144-.402.275-.595.43-19.839 15.92-80.33 55.344-121.449 46.696-18.135-3.813-30.435-12.701-36.559-26.415-4.862-10.889-4.299-21.028-4.293-21.13-.59-7.908-6.718-14.506-14.955-14.506-6.839 0-13.527 5.235-14.865 11.946-.019.22-.053.676-.083 1.332-.052.567-.078 1.141-.052 1.723 0 .009.002.018.002.026-.073 5.614.547 17.853 6.165 31.253 6.888 16.427 22.622 37.592 58.466 45.129 6.01 1.264 12.168 1.837 18.395 1.837 23.128 0 47.207-7.906 68.165-17.7 4.103-9.601 8.78-18.685 14.018-27.126 8.257-13.306 17.555-24.521 27.64-33.495z"/><path fill="#051C34" d="m77.976 489.025c2.205 5.588 7.375 9.673 13.853 9.673 7.846 0 15.363-6.899 15-15-.084-1.867-.49-3.661-1.147-5.327-.135-.419-11.177-38.228 35.183-130.624-4.118-15.023-6.618-31.308-8.116-48.167-74.305 129.628-56.999 183.657-54.773 189.445z"/><path fill="#051C34" d="m346.802 107.387c5.238 8.442 9.916 17.527 14.019 27.129 20.956 9.792 45.034 17.697 68.159 17.697 6.227 0 12.385-.573 18.395-1.837 35.844-7.537 51.578-28.702 58.466-45.129 5.618-13.4 6.238-25.64 6.165-31.253 0-.009.002-.018.002-.026.026-.582.001-1.155-.052-1.723-.03-.656-.064-1.111-.083-1.332-1.338-6.711-8.026-11.946-14.865-11.946-8.237 0-14.365 6.598-14.955 14.506.007.102.569 10.241-4.293 21.13-6.124 13.714-18.424 22.602-36.559 26.415-41.119 8.647-101.609-30.776-121.449-46.696-.184-.148-.379-.272-.567-.41 10.076 8.971 19.367 20.179 27.617 33.475z"/><path fill="#051C34" d="m381.383 241.073c0 4.445-.021 8.904-.073 13.364 46.155 52.129 102.323 141.293 102.995 142.362 2.849 4.538 7.729 7.026 12.718 7.026 2.726 0 5.483-.742 7.962-2.298 7.016-4.405 9.133-13.664 4.728-20.68-3.26-5.193-77.862-123.593-129.066-170.019 29.815 18.2 57.054 27.396 81.274 27.396 1.736 0 3.455-.048 5.16-.142 26.242-1.453 39.154-14.033 40.549-15.454 2.59-2.724 4.2-6.423 4.38-10.431.363-8.101-7.154-15-15-15-4.262 0-7.959 1.77-10.62 4.569-.304.273-7.397 6.324-23.869 6.451-.16.002-.323.002-.486.002-16.677 0-45.273-6.603-87.487-37.648-.63-.464-1.291-.853-1.964-1.204 5.771 22.503 8.799 46.759 8.799 71.706z"/><path fill="#051C34" d="m406.339 478.371c-.658 1.666-1.063 3.46-1.147 5.327-.363 8.101 7.154 15 15 15 6.478 0 11.647-4.085 13.853-9.673 2.226-5.788 19.531-59.815-54.769-189.438-1.498 16.859-3.998 33.143-8.117 48.166 46.356 92.392 35.315 130.199 35.18 130.618z"/><path fill="#051C34" d="m307.263 28.323c0-8.284-6.716-15-15-15s-15 6.716-15 15c0 9.365-6.097 17.319-14.524 20.141 11.97.937 23.577 4.379 34.576 10.156 6.247-8.493 9.948-18.969 9.948-30.297z"/><path fill="#051C34" d="m234.763 28.323c0-8.284-6.716-15-15-15s-15 6.716-15 15c0 11.328 3.701 21.804 9.948 30.297 10.999-5.777 22.606-9.219 34.576-10.156-8.427-2.822-14.524-10.777-14.524-20.141z"/><path fill="#051C34" d="m351.383 241.073c0-22.749-2.765-44.747-8.026-64.987-1.681 14.606-5.369 28.6-13.215 40.482-14.054 21.284-38.302 31.631-74.13 31.631s-60.076-10.347-74.13-31.631c-7.845-11.882-11.534-25.876-13.215-40.482-5.261 20.241-8.026 42.238-8.026 64.987 0 43.735 2.014 88.467 16.621 119.365 14.033 29.685 39.056 43.51 78.749 43.51s64.716-13.825 78.749-43.51c14.609-30.898 16.623-75.63 16.623-119.365z"/><ellipse cx="256.013" cy="148.198" rx="58.667" ry="70"/></g></svg>